<svg xmlns="http://www.w3.org/2000/svg" width="1500" height="980" viewBox="0 0 1500 980">
<defs>
<linearGradient id="bg" x1="0" y1="0" x2="1" y2="1"><stop stop-color="#080612"/><stop offset=".5" stop-color="#170d29"/><stop offset="1" stop-color="#050309"/></linearGradient>
<linearGradient id="g1" x1="0" x2="1"><stop stop-color="#f2d98e"/><stop offset="1" stop-color="#8b5cf6"/></linearGradient>
<linearGradient id="g2" x1="0" x2="1"><stop stop-color="#8b5cf6"/><stop offset="1" stop-color="#ec4899"/></linearGradient>
<filter id="glow"><feGaussianBlur stdDeviation="16" result="b"/><feMerge><feMergeNode in="b"/><feMergeNode in="SourceGraphic"/></feMerge></filter>
</defs>
<rect width="1500" height="980" fill="url(#bg)"/>
<circle cx="1230" cy="160" r="270" fill="#8b5cf6" opacity=".12"/>
<circle cx="220" cy="850" r="330" fill="#ec4899" opacity=".10"/>
<g opacity=".9">
<path d="M165 220h1170a42 42 0 0 1 42 42v560a42 42 0 0 1-42 42H165a42 42 0 0 1-42-42V262a42 42 0 0 1 42-42z" fill="rgba(255,255,255,.05)" stroke="rgba(255,255,255,.14)" stroke-width="3"/>
<text x="190" y="310" font-family="Inter, Arial" font-size="44" font-weight="800" fill="#fff">Talent Pool</text>
<text x="190" y="358" font-family="Inter, Arial" font-size="24" fill="#c9bfd8">Verified profiles ready for future client requests</text>
<g transform="translate(190,430)">
<rect width="320" height="210" rx="28" fill="rgba(255,255,255,.06)" stroke="rgba(255,255,255,.14)"/>
<circle cx="82" cy="82" r="46" fill="url(#g2)" filter="url(#glow)"/>
<path d="M45 167c17-38 55-55 93-42 23 8 41 22 54 42" fill="none" stroke="#f2d98e" stroke-width="11" stroke-linecap="round"/>
<rect x="160" y="54" width="120" height="18" rx="9" fill="#fff" opacity=".92"/>
<rect x="160" y="92" width="92" height="14" rx="7" fill="#c9bfd8" opacity=".9"/>
<rect x="160" y="128" width="132" height="14" rx="7" fill="#8b5cf6" opacity=".9"/>
</g>
<g transform="translate(590,430)">
<rect width="320" height="210" rx="28" fill="rgba(255,255,255,.06)" stroke="rgba(255,255,255,.14)"/>
<circle cx="82" cy="82" r="46" fill="url(#g1)" filter="url(#glow)"/>
<path d="M45 167c17-38 55-55 93-42 23 8 41 22 54 42" fill="none" stroke="#ec4899" stroke-width="11" stroke-linecap="round"/>
<rect x="160" y="54" width="120" height="18" rx="9" fill="#fff" opacity=".92"/>
<rect x="160" y="92" width="100" height="14" rx="7" fill="#c9bfd8" opacity=".9"/>
<rect x="160" y="128" width="116" height="14" rx="7" fill="#f2d98e" opacity=".9"/>
</g>
<g transform="translate(990,430)">
<rect width="320" height="210" rx="28" fill="rgba(255,255,255,.06)" stroke="rgba(255,255,255,.14)"/>
<circle cx="82" cy="82" r="46" fill="url(#g2)" filter="url(#glow)"/>
<path d="M45 167c17-38 55-55 93-42 23 8 41 22 54 42" fill="none" stroke="#f2d98e" stroke-width="11" stroke-linecap="round"/>
<rect x="160" y="54" width="120" height="18" rx="9" fill="#fff" opacity=".92"/>
<rect x="160" y="92" width="88" height="14" rx="7" fill="#c9bfd8" opacity=".9"/>
<rect x="160" y="128" width="142" height="14" rx="7" fill="#8b5cf6" opacity=".9"/>
</g>
<path d="M260 740h980" stroke="url(#g1)" stroke-width="6" stroke-linecap="round" opacity=".8"/>
<circle cx="260" cy="740" r="16" fill="#f2d98e"/><circle cx="750" cy="740" r="16" fill="#8b5cf6"/><circle cx="1240" cy="740" r="16" fill="#ec4899"/>
<text x="190" y="815" font-family="Inter, Arial" font-size="27" fill="#fff">Kept organized for brand, agency and client opportunities.</text>
</g></svg>